<svg width="400" height="300" viewBox="0 0 400 300" fill="none" xmlns="http://www.w3.org/2000/svg">
  <rect width="400" height="300" rx="20" fill="#F5F5F5"/>
  <circle cx="200" cy="150" r="100" fill="#4a7c59" fill-opacity="0.1"/>
  <path d="M160 100C160 100 140 130 140 150C140 170 150 180 160 180C170 180 180 170 180 150C180 130 160 100 160 100Z" fill="#4a7c59"/>
  <path d="M240 100C240 100 220 130 220 150C220 170 230 180 240 180C250 180 260 170 260 150C260 130 240 100 240 100Z" fill="#4a7c59"/>
  <path d="M200 80C200 80 180 110 180 130C180 150 190 160 200 160C210 160 220 150 220 130C220 110 200 80 200 80Z" fill="#4a7c59"/>
  <path d="M160 100C160 100 150 130 150 150C150 170 155 170 160 170" stroke="#a4c3a2" stroke-width="2" stroke-linecap="round"/>
  <path d="M160 100C160 100 170 130 170 150C170 170 165 170 160 170" stroke="#a4c3a2" stroke-width="2" stroke-linecap="round"/>
  <path d="M240 100C240 100 230 130 230 150C230 170 235 170 240 170" stroke="#a4c3a2" stroke-width="2" stroke-linecap="round"/>
  <path d="M240 100C240 100 250 130 250 150C250 170 245 170 240 170" stroke="#a4c3a2" stroke-width="2" stroke-linecap="round"/>
  <path d="M200 80C200 80 190 110 190 130C190 150 195 150 200 150" stroke="#a4c3a2" stroke-width="2" stroke-linecap="round"/>
  <path d="M200 80C200 80 210 110 210 130C210 150 205 150 200 150" stroke="#a4c3a2" stroke-width="2" stroke-linecap="round"/>
  <circle cx="100" cy="100" r="20" fill="#f4b942"/>
  <circle cx="300" cy="100" r="15" fill="#f4b942"/>
  <circle cx="100" cy="200" r="15" fill="#f4b942"/>
  <circle cx="300" cy="200" r="20" fill="#f4b942"/>
  <path d="M160 180C160 180 150 200 150 220" stroke="#4a7c59" stroke-width="2" stroke-linecap="round"/>
  <path d="M240 180C240 180 250 200 250 220" stroke="#4a7c59" stroke-width="2" stroke-linecap="round"/>
  <path d="M200 160C200 160 200 180 200 220" stroke="#4a7c59" stroke-width="2" stroke-linecap="round"/>
  <rect x="120" y="220" width="160" height="20" rx="10" fill="#a4c3a2"/>
</svg>

