<svg width="200" height="300" viewBox="0 0 200 300" fill="none" xmlns="http://www.w3.org/2000/svg">
  <path d="M100 280C100 280 98 220 98 200C98 180 100 150 100 120" stroke="#5D4037" stroke-width="4" stroke-linecap="round"/>
  <path d="M100 200C100 200 90 190 85 180C80 170 80 160 85 155C90 150 95 155 100 160C105 155 110 150 115 155C120 160 120 170 115 180C110 190 100 200 100 200Z" fill="#8E6DE0"/>
  <path d="M100 180C100 180 90 170 85 160C80 150 80 140 85 135C90 130 95 135 100 140C105 135 110 130 115 135C120 140 120 150 115 160C110 170 100 180 100 180Z" fill="#9C7CF2"/>
  <path d="M100 160C100 160 90 150 85 140C80 130 80 120 85 115C90 110 95 115 100 120C105 115 110 110 115 115C120 120 120 130 115 140C110 150 100 160 100 160Z" fill="#A98DF9"/>
  <path d="M100 140C100 140 90 130 85 120C80 110 80 100 85 95C90 90 95 95 100 100C105 95 110 90 115 95C120 100 120 110 115 120C110 130 100 140 100 140Z" fill="#B69EFF"/>
  <path d="M100 120C100 120 90 110 85 100C80 90 80 80 85 75C90 70 95 75 100 80C105 75 110 70 115 75C120 80 120 90 115 100C110 110 100 120 100 120Z" fill="#C4AFFF"/>
  <path d="M85 200C85 200 90 210 100 220C110 210 115 200 115 200" stroke="#5D4037" stroke-width="2" stroke-linecap="round"/>
  <path d="M80 180C80 180 90 190 100 200C110 190 120 180 120 180" stroke="#5D4037" stroke-width="2" stroke-linecap="round"/>
  <path d="M80 160C80 160 90 170 100 180C110 170 120 160 120 160" stroke="#5D4037" stroke-width="2" stroke-linecap="round"/>
  <path d="M80 140C80 140 90 150 100 160C110 150 120 140 120 140" stroke="#5D4037" stroke-width="2" stroke-linecap="round"/>
  <path d="M80 120C80 120 90 130 100 140C110 130 120 120 120 120" stroke="#5D4037" stroke-width="2" stroke-linecap="round"/>
  <path d="M80 100C80 100 90 110 100 120C110 110 120 100 120 100" stroke="#5D4037" stroke-width="2" stroke-linecap="round"/>
  <path d="M90 240C90 240 95 230 100 230C105 230 110 240 110 240" stroke="#5D4037" stroke-width="2" stroke-linecap="round"/>
  <path d="M85 260C85 260 95 250 100 250C105 250 115 260 115 260" stroke="#5D4037" stroke-width="2" stroke-linecap="round"/>
  <path d="M80 280C80 280 95 270 100 270C105 270 120 280 120 280" stroke="#5D4037" stroke-width="2" stroke-linecap="round"/>
</svg>

