<svg width="400" height="300" viewBox="0 0 400 300" fill="none" xmlns="http://www.w3.org/2000/svg">
  <rect width="400" height="300" rx="20" fill="#F5F5F5"/>
  <rect x="100" y="80" width="200" height="140" rx="10" fill="white" stroke="#4a7c59" stroke-width="2"/>
  <path d="M100 90L200 170L300 90" stroke="#4a7c59" stroke-width="2"/>
  <path d="M100 220L170 170" stroke="#4a7c59" stroke-width="2"/>
  <path d="M300 220L230 170" stroke="#4a7c59" stroke-width="2"/>
  <rect x="130" y="110" width="140" height="10" rx="5" fill="#a4c3a2"/>
  <rect x="130" y="130" width="140" height="10" rx="5" fill="#a4c3a2"/>
  <rect x="130" y="150" width="100" height="10" rx="5" fill="#a4c3a2"/>
  <circle cx="80" cy="60" r="20" fill="#f4b942"/>
  <circle cx="320" cy="60" r="15" fill="#f4b942"/>
  <circle cx="80" cy="240" r="15" fill="#f4b942"/>
  <circle cx="320" cy="240" r="20" fill="#f4b942"/>
  <path d="M60 150C60 150 80 130 100 130" stroke="#4a7c59" stroke-width="2" stroke-linecap="round"/>
  <path d="M340 150C340 150 320 130 300 130" stroke="#4a7c59" stroke-width="2" stroke-linecap="round"/>
  <path d="M60 170C60 170 80 190 100 190" stroke="#4a7c59" stroke-width="2" stroke-linecap="round"/>
  <path d="M340 170C340 170 320 190 300 190" stroke="#4a7c59" stroke-width="2" stroke-linecap="round"/>
</svg>

